# xmcd CD database file
#
# Track frame offsets:
#	150
#	35432
#	60602
#	82269
#	107746
#	134147
#	172450
#	191611
#
# Disc length: 2922 seconds
#
# Revision: 0
# Processed by: cddbd v1.5.1PL0 Copyright (c) Steve Scherf et al.
# Submitted via: CDex 1.51
#
DISCID=7b0b6808
DTITLE=Rutenia - Provynciyniy Djaz
DYEAR=1998
DGENRE=Jazz
TTITLE0=Ledi Rok-n-roll
TTITLE1=Piknik Dlja Dvoh
TTITLE2=Provincijniy Djaz
TTITLE3=Kiev ta Garlem
TTITLE4=Leleja
TTITLE5=Fluorescensiya
TTITLE6=Beduin
TTITLE7=Zirka nichnogo Klubu
EXTD=YEAR: 1998
EXTT0=
EXTT1=
EXTT2=
EXTT3=
EXTT4=
EXTT5=
EXTT6=
EXTT7=
PLAYORDER=
